<svg viewBox="0 0 100 100" xmlns="http://www.w3.org/2000/svg">
	<symbol id="menu">
	<path d="M5 8h22M5 16h22M27 24H5" stroke-width="3" stroke-linecap="round"/>
	</symbol>
	<symbol id="cross">
	<path d="M7 24L25 8M25 24L7 8" stroke-width="3" stroke-linecap="round"/>
	</symbol>
	<symbol id="logo">
	<path d="M5.76782 35.4295C5.70896 34.7191 5.2852 34.0206 4.11987 33.9614C4.8379 33.8667 5.82667 32.2091 5.40291 30.9778C5.04978 29.9832 3.99039 30.374 3.36652 30.5634C3.24881 31.5106 3.51955 33.251 2.47192 33.4759C2.42484 32.9787 2.51901 32.1499 2.38952 31.2856C2.14233 29.853 0.400216 30.516 0 30.6936C0.153024 32.2801 0.129482 32.7064 0.129482 34.6126C0.141253 35.2637 0.0706263 36.2938 0.129482 36.8503C0.294276 38.3302 2.04816 37.9395 2.53078 37.4304C2.53078 36.8029 2.51901 35.5242 2.48369 34.8138C3.26058 34.7546 3.40184 34.9796 3.42538 36.6371C3.43715 38.2947 5.39114 37.9869 5.96793 37.4186C5.76782 36.8029 5.82667 36.0215 5.76782 35.4295Z" fill="#1A212F"/>
	<path d="M6.78905 34.21C6.78905 37.6435 8.55471 37.9277 9.79067 37.8921C10.9325 37.8921 12.8041 37.5725 12.8158 34.21C12.8041 31.333 11.5328 30.3148 9.82598 30.3148C8.02501 30.3148 6.78905 31.4277 6.78905 34.21ZM9.82598 32.2446C9.95546 32.2446 10.4498 32.0552 10.4498 34.1271C10.4498 35.4769 10.238 36.2464 9.81421 36.2464C9.46108 36.2464 9.17857 35.9268 9.21389 34.1271C9.21389 32.4933 9.62587 32.2446 9.82598 32.2446Z" fill="#1A212F"/>
	<path d="M15.2378 32.4933C15.2378 33.1681 15.226 33.914 15.2614 36.2109C15.2731 37.1344 15.3084 37.8921 16.3678 37.8685C17.3095 37.8685 17.5449 37.4896 17.6509 37.3712C17.6862 36.3411 17.6156 34.0916 17.592 32.5288C17.851 32.5288 18.0982 32.5288 18.3218 32.5169C19.0752 32.4933 19.3341 32.0433 19.3224 31.4158C19.3106 30.7055 18.7338 30.3266 17.9334 30.3266H15.6969C13.9195 30.3384 13.8017 30.3384 13.6605 30.3266C13.3309 31.7237 13.531 32.4696 14.8847 32.4933H15.2378Z" fill="#1A212F"/>
	<path d="M24.1709 30.374C23.347 30.2911 21.3577 30.3266 19.9804 30.3858C20.1335 31.9605 20.1452 33.9851 20.1217 35.4177C20.1452 36.7911 20.0275 37.7501 21.4636 37.8448C22.4053 37.9158 22.935 37.9158 23.7825 37.8448C24.9361 37.7501 25.4069 37.1226 24.8537 35.7492C23.9002 35.8912 23.0174 35.9268 22.4641 35.8202C22.4641 35.6544 22.4406 35.1335 22.4641 35.0033C22.9938 35.0033 23.5706 34.9796 24.0768 34.9796C25.1244 34.9796 25.0185 33.2865 24.065 33.2865C23.3823 33.251 23.0762 33.322 22.4406 33.2628V32.3275C23.1586 32.2683 23.4764 32.3038 24.0768 32.3275C25.2068 32.363 25.2068 30.6107 24.1709 30.374Z" fill="#1A212F"/>
	<path d="M27.8479 27.7929C27.071 28.302 27.1181 29.0716 27.6714 29.5333C28.2952 29.9832 29.5194 29.8412 30.3434 29.4741C31.0967 29.1308 31.391 28.3494 30.5906 27.7692C29.4017 28.3967 28.613 28.0771 27.8479 27.7929ZM32.0384 31.3803C32.0384 30.6699 31.5911 30.3266 30.8849 30.3266C30.0609 30.3266 29.6371 30.5397 29.3899 31.2974C29.0957 32.2209 28.6601 33.6417 28.4129 34.6244C28.4129 34.1982 28.4836 31.6882 28.4836 31.3803C28.4836 30.5989 28.0716 30.3266 27.3771 30.3266C26.8945 30.3266 26.0352 30.6344 26.0352 30.6344C26.1058 31.1672 26.1647 31.475 26.1764 32.1736C26.2 32.9076 26.1764 34.0798 26.2471 36.4003C26.2824 37.537 26.6473 37.9158 27.5654 37.8803C29.2134 37.8211 29.3193 34.7665 29.7666 33.6535C29.7666 34.1626 29.7431 35.9268 29.7431 36.5187C29.7431 37.3238 29.8137 37.8803 30.7436 37.8803C31.544 37.8803 32.0031 37.608 32.1444 37.3594C32.0502 37.0042 32.0149 34.8493 32.0149 33.1563C32.0149 32.4104 32.0266 31.7592 32.0384 31.3803Z" fill="#1A212F"/>
	<path d="M38.8578 35.4295C38.799 34.7191 38.3752 34.0206 37.2099 33.9614C37.9279 33.8667 38.9167 32.2091 38.4929 30.9778C38.1398 29.9832 37.0804 30.374 36.4565 30.5634C36.3388 31.5106 36.6095 33.251 35.5619 33.4759C35.5148 32.9787 35.609 32.1499 35.4795 31.2856C35.2323 29.853 33.4902 30.516 33.09 30.6936C33.243 32.2801 33.2195 32.7064 33.2195 34.6126C33.2313 35.2637 33.1606 36.2938 33.2195 36.8503C33.3843 38.3302 35.1382 37.9395 35.6208 37.4304C35.6208 36.8029 35.609 35.5242 35.5737 34.8138C36.3506 34.7546 36.4918 34.9796 36.5154 36.6371C36.5272 38.2947 38.4811 37.9869 39.0579 37.4186C38.8578 36.8029 38.9167 36.0215 38.8578 35.4295Z" fill="#1A212F"/>
	<path d="M46 37.3712C45.8352 36.9094 45.847 36.6845 45.8117 36.0215C45.7175 34.2929 45.6939 32.6235 45.1289 31.475C44.1755 29.782 41.7153 30.2437 40.5265 31.0962C40.4205 33.1444 40.0674 33.9851 39.8437 36.2701C39.6789 37.9395 41.0679 38.4012 42.3627 37.5843C42.3627 37.383 42.3627 36.6845 42.4216 36.5187C42.5746 36.5187 43.1514 36.5306 43.3751 36.5306C43.3751 36.5306 43.3162 37.2173 43.6458 37.5843C44.2343 38.2592 45.588 38.0579 46 37.3712ZM42.504 35.0388C42.5864 34.3994 42.5864 33.0734 42.6217 32.7892C42.6806 32.7419 43.0808 32.7656 43.1279 32.8248C43.2691 33.3812 43.2691 34.3994 43.3044 35.0388H42.504Z" fill="#1A212F"/>
	<path d="M28.4761 5.11195L33.2775 0.306021C33.9307 -0.347712 35.0475 0.11529 35.0475 1.03989V13.882C35.0474 9.71656 31.7522 7.18325 28.4761 5.11195Z" fill="#FF7236"/>
	<path d="M35.0476 13.8822C35.0476 20.3403 29.8171 25.5755 23.3651 25.5755C16.9131 25.5755 11.6827 20.3402 11.6827 13.8822C11.6827 7.42414 16.913 2.91962 23.3651 2.91962C29.8172 2.91962 35.0476 7.42406 35.0476 13.8822Z" fill="#FFAA50"/>
	<path d="M18.2539 13.882C18.2539 8.2538 21.4826 4.11194 25.7821 3.13975C25.0019 2.99645 24.1941 2.91946 23.365 2.91946C21.2152 2.91946 19.2078 3.42899 17.4775 4.33479L13.4525 0.306021C12.7993 -0.347712 11.6825 0.11529 11.6825 1.03989V13.882C11.6825 13.6184 11.6825 13.6198 11.6825 13.882C11.6825 20.3401 16.9129 25.5754 23.3649 25.5754C24.1941 25.5754 25.0019 25.486 25.782 25.3217C21.4826 24.2069 18.2539 19.5101 18.2539 13.882Z" fill="#FF7236"/>
	<path d="M20.8094 21.1903C22.2208 21.1903 23.3649 20.2087 23.3649 18.9979C23.3649 17.787 22.2208 16.8054 20.8094 16.8054C19.398 16.8054 18.2539 17.787 18.2539 18.9979C18.2539 20.2087 19.398 21.1903 20.8094 21.1903Z" fill="#FFFDFB"/>
	<path d="M25.5555 21.385C26.9669 21.385 28.111 20.4034 28.111 19.1925C28.111 17.9816 26.9669 17 25.5555 17C24.1441 17 23 17.9816 23 19.1925C23 20.4034 24.1441 21.385 25.5555 21.385Z" fill="#FFFDFB"/>
	<path d="M23.3652 18.9983C24.1717 18.9983 24.8255 18.3439 24.8255 17.5367C24.8255 16.7294 24.1717 16.075 23.3652 16.075C22.5587 16.075 21.9048 16.7294 21.9048 17.5367C21.9048 18.3439 22.5587 18.9983 23.3652 18.9983Z" fill="#FF913C"/>
	<path d="M18.9842 14.6128C18.5806 14.6128 18.2541 14.2856 18.2541 13.882V13.1512C18.2541 12.7476 18.5807 12.4204 18.9842 12.4204C19.3877 12.4204 19.7143 12.7476 19.7143 13.1512V13.882C19.7143 14.2856 19.3877 14.6128 18.9842 14.6128Z" fill="#1A212F"/>
	<path d="M27.746 14.6128C27.3424 14.6128 27.0159 14.2856 27.0159 13.882V13.1512C27.0159 12.7476 27.3425 12.4204 27.746 12.4204C28.1496 12.4204 28.4761 12.7476 28.4761 13.1512V13.882C28.4762 14.2856 28.1496 14.6128 27.746 14.6128Z" fill="#1A212F"/>
	</symbol>
	<symbol id="cat">
	
	<g filter="url(#filter0_d_44_3895)">
		<path d="M35.5919 38.0398L21.4095 38.0325L18.6405 58.0786C18.5003 59.0942 19.2882 60 20.3121 60H36.6881C37.7119 60 38.4999 59.0942 38.3596 58.0786L35.5919 38.0398Z" fill="#FF7236"/>
		<path d="M20.9702 41.2122C23.2171 42.4149 25.7791 43.1017 28.5001 43.1017C31.221 43.1017 33.7831 42.4149 36.03 41.2122L35.5918 38.0396L21.4094 38.0322L20.9702 41.2122Z" fill="#FFAA50"/>
		<path d="M34.4062 16.9098L39.9546 11.3538C40.7093 10.598 41.9999 11.1333 41.9999 12.2022V27.0487C41.9999 22.2331 38.192 19.3044 34.4062 16.9098Z" fill="#FF7236"/>
		<path d="M42 27.0488C42 34.5149 35.9558 40.5673 28.5001 40.5673C21.0443 40.5673 15.0002 34.5148 15.0002 27.0488C15.0002 19.5828 21.0442 14.3752 28.5001 14.3752C35.9559 14.3752 42 19.5827 42 27.0488Z" fill="#FFAA50"/>
		<path d="M22.5938 27.0487C22.5938 20.542 26.3247 15.7537 31.2931 14.6298C30.3915 14.4641 29.458 14.3751 28.5 14.3751C26.0157 14.3751 23.696 14.9642 21.6965 16.0114L17.0453 11.3538C16.2906 10.598 15 11.1333 15 12.2022V27.0487C15 26.744 15 26.7456 15 27.0487C15 34.5148 21.0442 40.5671 28.4999 40.5671C29.458 40.5671 30.3915 40.4639 31.293 40.2739C26.3247 38.9851 22.5938 33.5553 22.5938 27.0487Z" fill="#FF7236"/>
		<path d="M25.5468 35.4979C27.1778 35.4979 28.4999 34.363 28.4999 32.9632C28.4999 31.5633 27.1778 30.4285 25.5468 30.4285C23.9159 30.4285 22.5938 31.5633 22.5938 32.9632C22.5938 34.363 23.9159 35.4979 25.5468 35.4979Z" fill="#FFFDFB"/>
		<path d="M31.4533 35.4976C33.0843 35.4976 34.4064 34.3628 34.4064 32.9629C34.4064 31.563 33.0843 30.4282 31.4533 30.4282C29.8224 30.4282 28.5003 31.563 28.5003 32.9629C28.5003 34.3628 29.8224 35.4976 31.4533 35.4976Z" fill="#FFFDFB"/>
		<path d="M28.5002 32.9636C29.4322 32.9636 30.1877 32.2071 30.1877 31.2738C30.1877 30.3405 29.4322 29.584 28.5002 29.584C27.5682 29.584 26.8127 30.3405 26.8127 31.2738C26.8127 32.2071 27.5682 32.9636 28.5002 32.9636Z" fill="#FF913C"/>
		<path d="M34.4031 50.6358C34.3652 50.1712 33.9722 49.8259 33.4926 49.8639C33.0278 49.9027 32.6835 50.3112 32.7222 50.7761L32.882 52.6965C33.0956 55.2635 31.0726 57.4652 28.5001 57.4652C25.9277 57.4652 23.9046 55.2635 24.1182 52.6965L24.278 50.7761C24.3167 50.3112 23.9723 49.9027 23.5076 49.8639C23.0298 49.8264 22.6358 50.1712 22.5971 50.6358L21.818 59.9998H35.1824L34.4031 50.6358Z" fill="#FFAA50"/>
		<path d="M23.4377 27.8935C22.9713 27.8935 22.594 27.5152 22.594 27.0486V26.2038C22.594 25.7372 22.9714 25.3589 23.4377 25.3589C23.904 25.3589 24.2814 25.7372 24.2814 26.2038V27.0486C24.2814 27.5152 23.904 27.8935 23.4377 27.8935Z" fill="#1A212F"/>
		<path d="M33.5625 27.8935C33.0961 27.8935 32.7188 27.5152 32.7188 27.0486V26.2038C32.7188 25.7372 33.0962 25.3589 33.5625 25.3589C34.0289 25.3589 34.4062 25.7372 34.4062 26.2038V27.0486C34.4063 27.5152 34.0289 27.8935 33.5625 27.8935Z" fill="#1A212F"/>
	</g>
	<defs>
	<filter id="filter0_d_44_3895" x="0" y="0" width="57" height="79" filterUnits="userSpaceOnUse" color-interpolation-filters="sRGB">
	<feFlood flood-opacity="0" result="BackgroundImageFix"/>
	<feColorMatrix in="SourceAlpha" type="matrix" values="0 0 0 0 0 0 0 0 0 0 0 0 0 0 0 0 0 0 127 0" result="hardAlpha"/>
	<feOffset dy="4"/>
	<feGaussianBlur stdDeviation="7.5"/>
	<feColorMatrix type="matrix" values="0 0 0 0 0.575 0 0 0 0 0.575 0 0 0 0 0.575 0 0 0 0.25 0"/>
	<feBlend mode="normal" in2="BackgroundImageFix" result="effect1_dropShadow_44_3895"/>
	<feBlend mode="normal" in="SourceGraphic" in2="effect1_dropShadow_44_3895" result="shape"/>
	</filter>
	</defs>
	</symbol>
	<symbol id="equipment1">
	<path d="M18 9C18 11.404 17.0638 13.6641 15.364 15.364C13.6641 17.0638 11.404 18 9 18C7.31711 18 5.70505 17.5406 4.30601 16.6823L5.33784 15.6504C6.42452 16.2512 7.67292 16.5938 9 16.5938C13.1872 16.5938 16.5938 13.1872 16.5938 9C16.5938 7.67292 16.2512 6.42452 15.6504 5.33788L16.6823 4.30604C17.5406 5.70505 18 7.31711 18 9ZM1.02452 17.9698L0.0301641 16.9755L2.1581 14.8475C0.76173 13.2189 0 11.1681 0 9C0 6.59602 0.936176 4.33593 2.63602 2.63602C4.33593 0.936176 6.59602 0 9 0C11.1681 0 13.2189 0.76173 14.8475 2.1581L16.9755 0.0301641L17.9698 1.02452L1.02452 17.9698ZM3.15889 13.8467L13.8467 3.15889C12.5308 2.06504 10.841 1.40625 9 1.40625C4.81279 1.40625 1.40625 4.81279 1.40625 9C1.40625 10.841 2.06501 12.5308 3.15889 13.8467Z" fill="#777777"/>
	</symbol>
	<symbol id="equipment2">
	<path d="M17.9948 3.9228C17.8909 1.72308 16.2648 0 14.2928 0H3.70685C1.73507 0 0.10916 1.72308 0.00527345 3.92276C0.00175782 3.9956 0 12.1069 0 12.1069C0 13.1507 0.759377 14 1.69278 14H16.3068C17.2404 14 18 13.1508 18 12.1069C18 12.1069 17.9983 3.99603 17.9948 3.9228ZM3.70685 0.875005H14.2928C15.7079 0.875005 16.8972 1.99937 17.1623 3.50831H16.3574C16.1053 2.47577 15.2704 1.74985 14.293 1.74985H9.1662C8.95013 1.74985 9.55749 1.94576 9.55749 2.18734C9.55749 2.42891 8.95013 2.62482 9.1662 2.62482H14.293C14.837 2.62482 15.3116 2.97909 15.528 3.50827H15.1385C14.1625 3.50827 13.3621 4.36484 13.3074 5.44094C11.9396 4.95822 10.4697 4.7168 8.99991 4.7168C7.53013 4.7168 6.06035 4.95818 4.6927 5.4409C4.63793 4.36484 3.83742 3.50827 2.86127 3.50827H2.47174C2.68809 2.97913 3.1627 2.62482 3.70678 2.62482H9.1662C9.38227 2.62482 9.55749 2.42891 9.55749 2.18734C9.55749 1.94576 9.38227 1.74985 9.1662 1.74985H3.70678C2.72936 1.74985 1.89443 2.47577 1.64236 3.50831H0.83774C1.10282 1.99937 2.29195 0.875005 3.70685 0.875005ZM13.3044 6.36044V7.84611C13.3044 8.49432 12.8325 9.02166 12.2525 9.02166H5.74711C5.16735 9.02166 4.69569 8.49428 4.69569 7.84611V6.36044C7.41155 5.3336 10.5882 5.3336 13.3044 6.36044ZM17.2174 12.1069C17.2174 12.6682 16.8089 13.125 16.3068 13.125H1.69278C1.19089 13.125 0.782615 12.6683 0.782615 12.1069V11.8107V11.3732V10.9357V4.38332H2.86123C3.44124 4.38332 3.91307 4.9107 3.91307 5.55882V7.84608C3.91307 8.97681 4.73584 9.89662 5.74711 9.89662H12.8572C13.3074 9.89662 14.0869 9.34375 14.0869 7.84611V5.55886C14.0869 4.9107 14.5586 4.38336 15.1383 4.38336H17.2174L17.2174 12.1069Z" fill="#777777"/>
	</symbol>
	<symbol id="equipment3">
	<path d="M15.1174 15.3134H10.1675V2.6867H12.104V7.68131C11.5221 7.81455 11.0852 8.35506 11.0852 9.00004C11.0852 9.7447 11.6673 10.3505 12.3829 10.3505C13.0984 10.3505 13.6806 9.74474 13.6806 9.00004C13.6806 8.35506 13.2437 7.81455 12.6619 7.68131V2.6867H14.3628C14.8495 2.6867 15.2454 2.27463 15.2454 1.76815V0.918546C15.2454 0.412066 14.8495 0 14.3628 0H1.63721C1.15054 0 0.754593 0.412066 0.754593 0.918546V1.76811C0.754593 2.27463 1.15054 2.68666 1.63721 2.68666H5.8325V15.3133H0.882621C0.39595 15.3133 0 15.7254 0 16.2319V17.0815C0 17.588 0.39595 18 0.882621 18H15.1174C15.6041 18 16 17.5879 16 17.0815V16.2319C16 15.7254 15.6041 15.3134 15.1174 15.3134ZM13.1226 9.00004C13.1226 9.42453 12.7908 9.7699 12.3829 9.7699C11.975 9.7699 11.6431 9.42453 11.6431 9.00004C11.6431 8.57555 11.975 8.23018 12.3829 8.23018C12.7908 8.23018 13.1226 8.57555 13.1226 9.00004ZM1.63721 1.76815V0.918546C1.63721 0.732235 1.91026 0.667969 2.08929 0.667969H14.1753C14.3543 0.667969 14.5 0.732235 14.5 0.918546V1.76811C14.5 1.95442 14.3543 2.00391 14.1753 2.00391H2.08929C1.91026 2.00395 1.63721 1.95446 1.63721 1.76815ZM6.55357 13.2525H6.86606C6.86606 13.2525 7.14503 13.1226 7.14503 12.9622C7.14503 12.8018 7.02013 12.6719 6.86606 12.6719H6.55357V10.6111H9.49714C9.65124 10.6111 10.5938 10.4461 9.85332 10.2858C10.5938 10.1254 9.65124 10.0305 9.49714 10.0305H6.55357V7.96958H9.13397C9.28804 7.96958 8.855 7.83963 8.855 7.67926C8.855 7.51888 9.28804 7.38894 9.13397 7.38894L6.55357 7.38894V2.6867L9.49714 2.68666V4.74745L6.31014 4.74745C6.15608 4.74745 6.31014 4.71703 6.31014 4.8774C6.31014 5.3281 6.14701 5.32814 6.14701 5.32814L9.49714 5.3281V7.3889L9.13397 7.38894C8.97987 7.38894 8.855 7.51888 8.855 7.67926C8.855 7.83963 8.97987 7.96958 9.13397 7.96958L9.49714 7.96955V10.3207V12.6719L6.86606 12.6719C6.712 12.6719 7.14503 12.8018 7.14503 12.9622C7.14503 13.1226 6.712 13.2525 6.86606 13.2525L9.49714 13.2525V15.3133L6.55357 15.3133V13.2525ZM15.3176 17.0815C15.3176 17.2678 15.0362 17.3145 14.8571 17.3145H1.03897C0.859945 17.3145 0.714286 17.2678 0.714286 17.0815V16.232C0.714286 16.0457 0.859945 15.9961 1.03897 15.9961H14.9928C15.1719 15.9961 15.3175 16.0457 15.3175 16.232L15.3176 17.0815Z" fill="#777777"/>
	</symbol>
	<symbol id="equipment4">
	<path d="M16.3435 14.6859H11.8023C14.1546 13.3235 15.7407 10.7788 15.7407 7.87025C15.7407 3.53062 12.2099 0 7.87033 0C3.53059 0 0 3.53062 0 7.87025C0 12.21 3.53059 15.7406 7.87033 15.7406H16.3435C16.6753 15.7406 16.9453 16.0106 16.9453 16.3435C16.9453 16.676 16.6763 16.9453 16.3435 16.9453H9C8.70872 16.9453 8.47266 17.1814 8.47266 17.4727C8.47266 17.7639 8.70872 18 9 18H16.3435C17.2492 18 18 17.269 18 16.3424C18 15.429 17.2569 14.6859 16.3435 14.6859ZM7.87033 14.6859C7.57535 14.6859 7.28462 14.667 6.99939 14.6305L12.762 11.3035L13.4892 11.7233C12.2594 13.5112 10.1996 14.6859 7.87033 14.6859ZM4.04778 13.5103L10.3162 9.89134L11.7073 10.6946L5.51857 14.2676C4.99535 14.0747 4.50206 13.8191 4.04778 13.5103ZM3.50601 2.63962C3.9294 2.28572 4.39618 1.98209 4.89716 1.73819V8.97796L3.50601 9.7812V2.63962ZM5.95184 1.33004C6.39844 1.19875 6.86371 1.11169 7.34299 1.07488V7.56579L5.95184 8.36904V1.33004ZM14.686 7.87025C14.686 8.0356 14.6797 8.19943 14.6681 8.3619L8.39767 4.7416V3.13525L14.5864 6.7083C14.6516 7.0861 14.686 7.47419 14.686 7.87025ZM8.39767 5.95944L14.4937 9.47894C14.381 9.94311 14.2208 10.389 14.0183 10.8109L8.39767 7.56579V5.95944ZM14.1593 5.24395L8.39767 1.9174V1.07488C10.9976 1.27484 13.1936 2.9401 14.1593 5.24395ZM2.45132 3.74183V10.3901L1.72238 10.8109C1.2946 9.92018 1.05469 8.92275 1.05469 7.87025C1.05469 6.31952 1.57571 4.8884 2.45132 3.74183ZM2.25151 11.7233L7.87033 8.47917L9.26147 9.28242L3.16859 12.8001C2.82719 12.4742 2.51971 12.1133 2.25151 11.7233Z" fill="#777777"/>
	</symbol>
	<symbol id="equipment5">
	<path d="M17.8455 8.06232L10.3373 0.553986C9.98039 0.196793 9.50551 0 9 0C8.49449 0 8.01961 0.196793 7.66296 0.553848L0.154495 8.06232C0.0554809 8.16119 0 8.29536 0 8.4353C0 8.5751 0.0556183 8.70927 0.154633 8.80829C0.154633 8.80829 0.408417 9.0618 0.719467 9.37285C1.3163 9.96982 2.13835 10.1106 2.82431 9.90884V17.4727C2.82431 17.7639 3.06038 18 3.35165 18H14.6485C14.9396 18 15.1758 17.7639 15.1758 17.4727V9.90884C15.8616 10.1106 16.6838 9.96982 17.2804 9.37285C17.5916 9.0618 17.8454 8.80829 17.8454 8.80829C17.9442 8.70927 18 8.57524 18 8.4353C18 8.29536 17.9445 8.16119 17.8455 8.06232ZM14.1211 9.21849V14.686H11.7867V11.2593C11.7867 9.72029 10.5419 8.47266 9 8.47266C7.46068 8.47266 6.21332 9.71741 6.21332 11.2593V14.686H3.87886V9.21849L9 4.09735L14.1211 9.21849ZM3.87886 15.7407H6.21332V16.9453H3.87886V15.7407ZM7.26801 16.9453V11.2593C7.26801 10.3046 8.03966 9.52734 9 9.52734C9.95677 9.52734 10.732 10.3011 10.732 11.2593V16.9453H7.26801ZM11.7867 16.9453V15.7407H14.1211V16.9453H11.7867ZM16.5346 8.62715C16.1169 9.04504 15.4399 9.04559 15.0216 8.62715C15.0183 8.62386 15.0147 8.62042 15.0113 8.61713L9.37285 2.97867C9.16699 2.77267 8.83301 2.77267 8.62715 2.97867L2.98869 8.61713C2.98512 8.62042 2.98169 8.62372 2.97839 8.62715C2.56064 9.04504 1.88361 9.04573 1.4653 8.62715C1.39801 8.55972 1.33333 8.49504 1.27332 8.43503L8.40894 1.29941C8.73468 0.973251 9.2645 0.972427 9.59134 1.29955L16.7267 8.43503C16.6667 8.49504 16.602 8.55972 16.5346 8.62715Z" fill="#777777"/>
	</symbol>
	<symbol id="facebook">
	<circle cx="12" cy="12" r="12" fill="#FFFDFB"/>
	<path d="M24 12C24 5.3736 18.6264 0 12 0C5.3736 0 0 5.3736 0 12C0 18.6264 5.3736 24 12 24C12.0705 24 12.1406 23.9985 12.2109 23.9973V14.6558H9.63281V11.6512H12.2109V9.44019C12.2109 6.87598 13.7763 5.48035 16.0637 5.48035C17.159 5.48035 18.1005 5.56201 18.375 5.59845V8.27838H16.7977C15.5533 8.27838 15.3124 8.86981 15.3124 9.73755V11.6512H18.2878L17.9 14.6558H15.3124V23.5364C20.3282 22.0984 24 17.4774 24 12Z" fill="#1A212F"/>
	</symbol>
	<symbol id="instagram">
	<circle cx="12" cy="12" r="12" fill="#FFFDFB"/>
	<path d="M14.2969 12C14.2969 13.2686 13.2686 14.2969 12 14.2969C10.7314 14.2969 9.70312 13.2686 9.70312 12C9.70312 10.7314 10.7314 9.70312 12 9.70312C13.2686 9.70312 14.2969 10.7314 14.2969 12Z" fill="#1A212F"/>
	<path d="M17.3716 7.93622C17.2612 7.63702 17.085 7.36621 16.8561 7.14392C16.6339 6.91504 16.3632 6.73889 16.0638 6.62848C15.821 6.53418 15.4563 6.42194 14.7845 6.39136C14.0577 6.35822 13.8398 6.35107 12 6.35107C10.16 6.35107 9.94208 6.35803 9.21552 6.39117C8.5437 6.42194 8.17877 6.53418 7.93616 6.62848C7.63678 6.73889 7.36597 6.91504 7.14386 7.14392C6.91498 7.36621 6.73883 7.63684 6.62823 7.93622C6.53394 8.17902 6.42169 8.54395 6.39111 9.21576C6.35797 9.94232 6.35083 10.1602 6.35083 12.0002C6.35083 13.8401 6.35797 14.058 6.39111 14.7847C6.42169 15.4565 6.53394 15.8213 6.62823 16.0641C6.73883 16.3635 6.91479 16.6341 7.14368 16.8564C7.36597 17.0853 7.6366 17.2614 7.93597 17.3718C8.17877 17.4663 8.5437 17.5786 9.21552 17.6091C9.94208 17.6423 10.1598 17.6492 11.9998 17.6492C13.84 17.6492 14.0579 17.6423 14.7843 17.6091C15.4561 17.5786 15.821 17.4663 16.0638 17.3718C16.6648 17.14 17.1398 16.665 17.3716 16.0641C17.4659 15.8213 17.5781 15.4565 17.6089 14.7847C17.642 14.058 17.649 13.8401 17.649 12.0002C17.649 10.1602 17.642 9.94232 17.6089 9.21576C17.5783 8.54395 17.4661 8.17902 17.3716 7.93622ZM12 15.5384C10.0457 15.5384 8.46149 13.9543 8.46149 12.0001C8.46149 10.0458 10.0457 8.46173 12 8.46173C13.9541 8.46173 15.5383 10.0458 15.5383 12.0001C15.5383 13.9543 13.9541 15.5384 12 15.5384ZM15.6782 9.14874C15.2216 9.14874 14.8513 8.7785 14.8513 8.32184C14.8513 7.86517 15.2216 7.49493 15.6782 7.49493C16.1349 7.49493 16.5051 7.86517 16.5051 8.32184C16.5049 8.7785 16.1349 9.14874 15.6782 9.14874Z" fill="#1A212F"/>
	<path d="M12 0C5.3736 0 0 5.3736 0 12C0 18.6264 5.3736 24 12 24C18.6264 24 24 18.6264 24 12C24 5.3736 18.6264 0 12 0ZM18.8491 14.8409C18.8157 15.5744 18.6991 16.0752 18.5288 16.5135C18.1708 17.4391 17.4391 18.1708 16.5135 18.5288C16.0754 18.6991 15.5744 18.8156 14.8411 18.8491C14.1063 18.8826 13.8715 18.8906 12.0002 18.8906C10.1287 18.8906 9.8941 18.8826 9.15912 18.8491C8.42578 18.8156 7.9248 18.6991 7.48663 18.5288C7.02667 18.3558 6.61029 18.0846 6.26605 17.7339C5.91559 17.3899 5.64441 16.9733 5.47137 16.5135C5.30109 16.0754 5.18445 15.5744 5.15112 14.8411C5.11725 14.1061 5.10938 13.8713 5.10938 12C5.10938 10.1287 5.11725 9.89392 5.15094 9.15912C5.18427 8.4256 5.30072 7.9248 5.47101 7.48645C5.64404 7.02667 5.91541 6.61011 6.26605 6.26605C6.61011 5.91541 7.02667 5.64423 7.48645 5.47119C7.9248 5.3009 8.4256 5.18445 9.15912 5.15094C9.89392 5.11743 10.1287 5.10938 12 5.10938C13.8713 5.10938 14.1061 5.11743 14.8409 5.15112C15.5744 5.18445 16.0752 5.3009 16.5135 5.47101C16.9733 5.64404 17.3899 5.91541 17.7341 6.26605C18.0846 6.61029 18.356 7.02667 18.5288 7.48645C18.6993 7.9248 18.8157 8.4256 18.8492 9.15912C18.8828 9.89392 18.8906 10.1287 18.8906 12C18.8906 13.8713 18.8828 14.1061 18.8491 14.8409Z" fill="#1A212F"/>
	</symbol>
	<symbol id="vk">
	<path d="M12 24C18.6274 24 24 18.6274 24 12C24 5.37258 18.6274 0 12 0C5.37258 0 0 5.37258 0 12C0 18.6274 5.37258 24 12 24Z" fill="#1A212F"/>
	<path fill-rule="evenodd" clip-rule="evenodd" d="M11.5468 17.263H12.4886C12.4886 17.263 12.7731 17.2317 12.9184 17.0752C13.0521 16.9314 13.0478 16.6615 13.0478 16.6615C13.0478 16.6615 13.0294 15.3977 13.6159 15.2116C14.1941 15.0282 14.9366 16.433 15.7236 16.9731C16.3187 17.3819 16.7709 17.2923 16.7709 17.2923L18.8752 17.263C18.8752 17.263 19.976 17.1952 19.454 16.3297C19.4112 16.2589 19.15 15.6894 17.8895 14.5193C16.5701 13.2947 16.7467 13.4928 18.3361 11.3744C19.3041 10.0843 19.691 9.2967 19.5702 8.95936C19.4549 8.63807 18.743 8.72299 18.743 8.72299L16.3737 8.73775C16.3737 8.73775 16.1981 8.71379 16.0678 8.79166C15.9405 8.86802 15.8586 9.046 15.8586 9.046C15.8586 9.046 15.4836 10.0443 14.9835 10.8933C13.9285 12.6848 13.5066 12.7794 13.3342 12.6682C12.9331 12.4089 13.0332 11.6266 13.0332 11.0709C13.0332 9.33478 13.2966 8.6109 12.5205 8.42352C12.263 8.36127 12.0734 8.3202 11.4148 8.31357C10.5694 8.3048 9.85388 8.31613 9.44873 8.51464C9.17921 8.64663 8.97128 8.94075 9.09792 8.95765C9.2545 8.97862 9.60917 9.05327 9.7972 9.30932C10.04 9.6396 10.0314 10.3814 10.0314 10.3814C10.0314 10.3814 10.1709 12.4252 9.70564 12.6791C9.38627 12.8532 8.94818 12.4977 8.00761 10.8724C7.52567 10.0398 7.16181 9.11958 7.16181 9.11958C7.16181 9.11958 7.09164 8.9476 6.96651 8.85562C6.81463 8.74417 6.60243 8.70866 6.60243 8.70866L4.35101 8.72342C4.35101 8.72342 4.01303 8.73283 3.88896 8.87979C3.77858 9.01049 3.88019 9.28087 3.88019 9.28087C3.88019 9.28087 5.64282 13.4047 7.63862 15.4828C9.46863 17.3881 11.5468 17.263 11.5468 17.263Z" fill="#FFFDFB"/>
	</symbol>
	<symbol id="filter">
	<path d="M4.5 8.68421L0 1.57895V0H12V1.57895L7.5 8.68421V13.4211L4.5 15V8.68421Z" fill="#1A212F"/>
	</symbol>
	<symbol id="fish">
	<g opacity="0.15">
		<path fill-rule="evenodd" clip-rule="evenodd" d="M114.927 15.8568C117.791 19.2176 117.153 27.9021 113.938 30.3059C112.149 25.3396 112.778 20.6262 114.927 15.8568ZM102.028 35.7074C99.3941 30.2327 100.557 14.6136 102.711 10.6206C106.95 16.1638 106.631 29.4172 102.028 35.7074ZM28.2048 13.3608C31.7764 13.3532 34.2893 15.8767 34.2918 19.4686C34.2943 23.0062 31.6626 25.6609 28.1924 25.6191C24.7148 25.5801 22.2488 23.0595 22.2266 19.5313C22.2018 15.872 24.6307 13.3684 28.2048 13.3608ZM88.5062 5.98611C95.5974 15.3559 94.0886 33.3084 87.5688 40.0625C87.8829 28.7119 88.1896 17.5287 88.5062 5.98611ZM47.7619 3.72495C56.4015 16.0298 54.0097 34.0184 46.8467 41.5395C48.7092 28.7338 48.2467 16.237 47.7619 3.72495ZM72.6269 42.1773C74.9593 29.306 75.0979 16.563 75.0657 3.42839C82.1297 13.1223 81.457 33.7751 72.6269 42.1773ZM60.1586 42.5394C61.378 29.4172 63.5892 16.312 61.0663 3.09951C69.9557 12.8276 68.7487 31.2982 60.1586 42.5394ZM139.53 23.8018C143.636 21.322 146.745 18.1027 148.82 14.0053C151.553 8.59611 149.463 5.12212 143.336 4.59178C140.057 4.30663 136.997 5.02708 134.254 6.6695C131.734 8.176 129.414 10.0104 127.022 11.7232C126.384 12.1804 125.812 12.7231 125.196 13.2145C122.718 15.1762 120.133 15.4462 117.193 14.0879C111.838 11.6158 106.5 9.04665 100.965 7.02022C89.2605 2.7374 77.0568 0.688178 64.5934 0.126447C45.6991 -0.730043 27.6334 2.77826 10.3518 10.2338C7.62364 11.4114 5.14532 13.166 2.59526 14.7257C1.98186 15.0983 1.49211 15.7066 1.04939 16.2807C-0.437133 18.1883 -0.380264 20.1567 1.45004 21.7478C15.442 33.9291 30.9527 43.18 49.9732 45.2549C68.4098 47.2623 86.3716 45.3262 103.53 38.0703C108.234 36.0848 112.748 33.6515 117.341 31.4075C118.8 30.6946 120.252 29.9627 121.664 29.1691C122.523 28.6853 122.909 28.9429 123.413 29.7099C124.811 31.8238 126.169 33.9946 127.826 35.9023C131.115 39.688 135.345 41.1384 140.341 39.9969C143.878 39.1918 145.441 36.7995 144.855 33.2989C144.224 29.554 142.174 26.5629 139.53 23.8018Z" fill="#FAB751"/>
		<path fill-rule="evenodd" clip-rule="evenodd" d="M60.1588 42.5395C68.7489 31.2983 69.9559 12.8277 61.0665 3.09961C63.5894 16.3121 61.3782 29.4173 60.1588 42.5395Z" fill="white"/>
		<path fill-rule="evenodd" clip-rule="evenodd" d="M72.6269 42.1773C81.4569 33.7752 82.1297 13.1224 75.0657 3.42847C75.0978 16.5631 74.9593 29.3061 72.6269 42.1773Z" fill="white"/>
		<path fill-rule="evenodd" clip-rule="evenodd" d="M47.762 3.7251C48.2468 16.2372 48.7093 28.734 46.8468 41.5398C54.0098 34.0187 56.4015 16.03 47.762 3.7251Z" fill="white"/>
		<path fill-rule="evenodd" clip-rule="evenodd" d="M88.5061 5.98633C88.1895 17.5288 87.8828 28.712 87.5687 40.0625C94.0885 33.3085 95.5973 15.356 88.5061 5.98633Z" fill="white"/>
		<path fill-rule="evenodd" clip-rule="evenodd" d="M28.2049 13.3606C24.6309 13.3682 22.202 15.8718 22.2267 19.5311C22.249 23.0592 24.715 25.5799 28.1926 25.6189C31.6627 25.6607 34.2944 23.006 34.2919 19.4684C34.2895 15.8765 31.7765 13.353 28.2049 13.3606Z" fill="white"/>
		<path fill-rule="evenodd" clip-rule="evenodd" d="M102.028 35.7076C106.631 29.4173 106.95 16.164 102.711 10.6208C100.557 14.6138 99.3942 30.2329 102.028 35.7076Z" fill="white"/>
		<path fill-rule="evenodd" clip-rule="evenodd" d="M114.927 15.8564C112.775 20.6259 112.149 25.3393 113.938 30.3056C117.153 27.9018 117.791 19.2173 114.927 15.8564Z" fill="white"/>
	</g>
	</symbol>
	<symbol id="lapa-orange">
	<path d="M36 18C36 22.8079 34.1277 27.3277 30.7279 30.7279C27.329 34.1268 22.8093 35.9992 18.0022 36H18C13.1921 36 8.67151 34.1277 5.27206 30.7279C1.87234 27.3277 0 22.8079 0 18C0 13.1921 1.87234 8.67151 5.27206 5.27206C8.67151 1.87234 13.1921 0 18 0H18.0022C22.8093 0.000823978 27.329 1.87317 30.7279 5.27206C34.1277 8.67151 36 13.1921 36 18Z" fill="#FF7236"/>
	<path d="M24.8031 15.5246C21.8387 17.2247 22.3435 22.1874 25.5591 22.1874C26.9459 22.1874 28.1462 21.1449 28.6806 19.812C29.9148 16.7336 27.3483 14.0644 24.8031 15.5246Z" fill="#FFFEFD"/>
	<path d="M21.7586 16.1391C25.3154 16.1391 26.3804 10.0992 23.0012 9.10622C21.4617 8.65395 19.711 9.73914 19.1487 11.7229C18.5178 13.9463 19.759 16.1391 21.7586 16.1391Z" fill="#FFFEFD"/>
	<path d="M20.8437 26.8903C20.3498 26.7537 19.4731 26.6658 18.5555 26.6531C17.5855 26.6389 16.57 26.7084 15.9129 26.8903C14.1382 27.3847 11.7235 26.1886 12.2533 23.7045C12.7434 21.408 14.5042 21.5389 14.9206 19.3625C15.3402 17.163 16.9706 16.1015 18.5555 16.1844C20.0223 16.2614 21.4499 17.3192 21.8389 19.363C22.2529 21.5409 24.0101 21.4088 24.4994 23.7045C25.0312 26.1906 22.6114 27.3802 20.8437 26.8903Z" fill="#FFFEFD"/>
	<path d="M15.4987 16.1393C16.5048 16.1393 17.3688 15.555 17.849 14.6607C19.2763 12.0014 16.9321 8.32 14.2558 9.10841C10.8708 10.1041 11.9438 16.1393 15.4987 16.1393Z" fill="#FFFEFD"/>
	<path d="M13.8909 20.2099C15.033 17.4156 12.3259 14.0023 9.74052 15.0763C6.62626 16.3698 7.99979 21.9487 11.424 21.9487C12.523 21.9487 13.4568 21.2722 13.8909 20.2099Z" fill="#FFFEFD"/>
	<path d="M20.8437 26.8902C20.3497 26.7537 19.473 26.6657 18.5554 26.653V16.1844C20.0223 16.2614 21.4498 17.3192 21.8388 19.363C22.2528 21.5408 24.01 21.4087 24.4994 23.7045C25.0311 26.1905 22.6113 27.3801 20.8437 26.8902Z" fill="#FFFEFD"/>
	</symbol>
	<symbol id="paw">
	<path d="M16.5802 63.31C34.5635 60.6469 48.5671 82.9442 35.0528 93.5027C29.2241 98.0565 20.7921 97.6616 14.2151 93.8731C-0.974485 85.1228 1.13873 65.5944 16.5802 63.31Z" fill="#FAC663" fill-opacity="0.15"/>
	<path d="M31.3729 55.8684C16.4243 67.5476 -7.67716 45.9249 3.29824 30.6994C8.29911 23.7632 19.1829 22.528 27.9919 28.9318C37.8681 36.1074 39.7768 49.3027 31.3729 55.8684Z" fill="#FAC663" fill-opacity="0.15"/>
	<path d="M70.1516 97.5782C71.7839 95.3884 75.1825 92.1439 78.9978 89.078C83.0283 85.8339 87.5223 82.7884 90.875 81.3874C99.9399 77.6162 106.202 64.7127 95.9039 56.1213C86.3822 48.1796 79.4068 54.5056 70.5851 46.8215C61.6749 39.0515 51.3732 39.9904 44.9819 45.5396C39.0673 50.6763 36.5045 59.7631 41.5105 69.5405C46.8472 79.9573 39.0328 85.178 44.4357 96.3326C50.2789 108.418 64.3144 105.42 70.1516 97.5782Z" fill="#FAC663" fill-opacity="0.15"/>
	<path d="M57.6828 35.3143C53.4544 38.6179 47.9243 39.0249 43.0005 36.8821C28.3609 30.5091 26.2511 7.50088 40.0607 1.99206C57.5225 -4.98159 72.6232 23.6416 57.6828 35.3143Z" fill="#FAC663" fill-opacity="0.15"/>
	<path d="M77.6663 46.9648C63.7868 39.0934 64.0732 16.0089 78.4288 11.9861C95.7204 7.13975 108.075 34.8523 93.684 46.0961C89.0655 49.7045 82.9423 49.9573 77.6663 46.9648Z" fill="#FAC663" fill-opacity="0.15"/>
	</symbol>
	<symbol id="sort">
	<path d="M1 1L7 7L13 1" stroke="#1A212F" stroke-width="2" stroke-linecap="round" stroke-linejoin="round"/>
	</symbol>
	<symbol id="why1">
	<rect width="60" height="60" rx="30" fill="#FAC663"/>
	<path d="M39.6795 20.2015C39.9779 20.2015 40.2198 20.4434 40.2198 20.7418C40.2198 21.0402 39.9779 21.2821 39.6795 21.2821H34.8476C34.5492 21.2821 34.3073 21.0402 34.3073 20.7418C34.3073 20.4434 34.5492 20.2015 34.8476 20.2015H39.6795ZM37.7404 23.1803C37.7404 22.8819 37.4985 22.64 37.2001 22.64H34.8476C34.5492 22.64 34.3073 22.8819 34.3073 23.1803C34.3073 23.4787 34.5492 23.7206 34.8476 23.7206H37.2001C37.4985 23.7206 37.7404 23.4787 37.7404 23.1803ZM34.3073 25.6188C34.3073 25.9172 34.5492 26.1591 34.8476 26.1591H39.6795C39.9779 26.1591 40.2198 25.9172 40.2198 25.6188C40.2198 25.3204 39.9779 25.0785 39.6795 25.0785H34.8476C34.5492 25.0785 34.3073 25.3204 34.3073 25.6188ZM37.7404 28.0581C37.7404 27.7597 37.4985 27.5178 37.2001 27.5178H34.8476C34.5492 27.5178 34.3073 27.7597 34.3073 28.0581C34.3073 28.3565 34.5492 28.5984 34.8476 28.5984H37.2001C37.4985 28.5984 37.7404 28.3565 37.7404 28.0581ZM34.3073 30.4966C34.3073 30.795 34.5492 31.0369 34.8476 31.0369H39.6795C39.9779 31.0369 40.2198 30.795 40.2198 30.4966C40.2198 30.1982 39.9779 29.9563 39.6795 29.9563H34.8476C34.5492 29.9563 34.3073 30.1982 34.3073 30.4966ZM35.2289 40.3079C35.2289 44.6221 31.7638 48.1319 27.5046 48.1319C23.2453 48.1319 19.7802 44.6221 19.7802 40.3079C19.7802 37.5122 21.2297 34.9714 23.5947 33.5658V15.8284C23.5947 13.6447 25.3486 11.8681 27.5046 11.8681C29.6605 11.8681 31.4144 13.6447 31.4144 15.8284V33.5658C33.7794 34.9699 35.2289 37.5114 35.2289 40.3079ZM34.1573 40.3079C34.1573 37.9356 32.8558 35.3263 30.7601 34.2484L30.3428 34.0336V15.8292C30.3428 14.497 28.819 12.9495 27.5046 12.9495C26.1901 12.9495 24.6663 14.497 24.6663 15.8292V34.0336L24.249 34.2484C22.1533 35.3271 20.8518 37.9364 20.8518 40.3079C20.8518 43.7698 24.0868 47.0513 27.5046 47.0513C30.9223 47.0513 34.1573 43.7698 34.1573 40.3079ZM32.4321 40.3079C32.4321 43.0596 30.222 45.2982 27.5046 45.2982C24.7879 45.2982 22.5778 43.0596 22.5778 40.3079C22.5778 38.0523 24.5364 36.0718 26.6908 35.4914L26.9739 35.4149V26.4143C26.9739 26.121 27.2116 25.8832 27.5049 25.8832C27.7982 25.8832 28.036 26.121 28.036 26.4143V35.4142L28.319 35.4914C30.4742 36.0718 32.4321 38.0531 32.4321 40.3079ZM28.1832 36.9738C28.0657 36.4452 27.5605 36.5699 27.0257 36.6936C25.1582 37.1217 23.8536 38.7761 23.8536 40.7172C23.8536 41.2666 23.8536 41.8555 24.5495 41.8555C24.9185 41.8555 25.0037 41.2426 25.0037 40.6932C25.0037 39.7064 25.6067 38.2339 27.0257 37.9036C27.5537 37.7808 28.3022 37.5085 28.1832 36.9738Z" fill="#FFFDFB"/>
	</symbol>
	<symbol id="why2">
	<rect width="60" height="60" rx="30" fill="#FAC663"/>
	<path d="M48.131 27.4446C48.1187 27.1766 47.9609 26.6796 47.043 26.3634L22.5718 17.9405C21.3174 17.5084 19.9253 18.1227 19.4687 19.3102L18.8062 21.033L17.3158 24.9093C16.8592 26.0969 17.5083 27.4145 18.7629 27.8468L25.895 30.3012C25.7595 31.0815 25.9856 31.8525 26.4776 32.4424L24.9583 36.3935C24.8884 36.5754 24.7039 36.6976 24.4993 36.6976H20.0481V35.3225C20.0481 34.5644 19.3965 33.9475 18.5955 33.9475H17.6271C17.3597 33.9475 17.1429 34.1527 17.1429 34.4058V41.7394C17.1429 41.9926 17.3597 42.1978 17.6271 42.1978H18.5955C19.3965 42.1978 20.0481 41.5809 20.0481 40.8227V39.4477H24.4993C25.9209 39.4477 27.2025 38.5981 27.6883 37.3338L29.1757 33.4656C30.0269 33.3525 30.8004 32.8821 31.2595 32.1474L39.5941 35.0156C39.8665 35.1095 40.1453 35.154 40.4197 35.154C41.252 35.1539 42.0428 34.7444 42.4857 34.0608L43.4421 34.3903C43.5501 34.4275 43.6621 34.4461 43.7738 34.4461C43.9132 34.4461 44.0521 34.4172 44.1821 34.3598C44.4164 34.2564 44.5941 34.0727 44.6825 33.8429L46.0078 30.396C46.169 29.9767 45.9851 29.5173 45.5945 29.2966L47.1467 28.6115C48.032 28.2207 48.1434 27.7127 48.131 27.4446ZM19.0797 40.8227C19.0797 41.0755 18.8625 41.2811 18.5955 41.2811H18.1113V34.8642H18.5955C18.8625 34.8642 19.0797 35.0698 19.0797 35.3225V40.8227ZM26.7783 37.0203C26.4311 37.9239 25.5152 38.531 24.4993 38.531H20.0481V37.6143H24.4993C25.1095 37.6143 25.6596 37.2497 25.8683 36.7071L27.2583 33.0922C27.4178 33.1829 27.5887 33.2608 27.7701 33.3233C27.8989 33.3677 28.0289 33.4028 28.159 33.4294L26.7783 37.0203ZM28.8306 32.5735C28.8194 32.5734 28.8082 32.5734 28.7971 32.574C28.5665 32.577 28.3312 32.5411 28.1013 32.4619C27.8321 32.3691 27.5974 32.2264 27.4051 32.0486C27.3875 32.0283 27.368 32.0095 27.3466 31.9923C26.986 31.6287 26.7929 31.1351 26.8295 30.6228L30.3253 31.8258C29.9716 32.2857 29.4179 32.5563 28.8306 32.5735ZM45.098 30.0824L43.7735 33.529L42.8628 33.2152L44.1191 29.9479L44.3763 29.8344L45.098 30.0824ZM46.7376 27.7807L44.1491 28.9232L44.1483 28.9236L43.5284 29.1972L43.5277 29.1975L42.801 29.5183C41.948 29.8948 40.4802 29.9554 39.5956 29.6506L21.0396 23.2658C20.7883 23.1794 21.4203 23.6153 21.329 23.8532C21.2377 24.0911 20.4571 24.0407 20.7084 24.1272L39.2647 30.5122C39.752 30.6801 40.3528 30.7618 40.9658 30.7618C41.636 30.7618 42.3203 30.6636 42.8866 30.4733L41.7873 33.3323C41.5134 34.0448 40.6781 34.4135 39.9253 34.1541L19.094 26.9853C18.3413 26.726 17.9518 25.9354 18.2258 25.2229L19.0543 23.0682C19.3306 23.4703 19.7415 23.7941 20.2533 23.9704L20.7084 24.1272C20.9595 24.2138 21.2375 24.0911 21.329 23.8532C21.4204 23.6154 21.2909 23.3523 21.0396 23.2658L20.5845 23.109C19.8319 22.8497 19.4424 22.0593 19.7162 21.3468L19.8819 20.9158L20.3787 19.6237C20.6527 18.9112 21.4879 18.5424 22.2407 18.8019L46.7119 27.2249C47.0228 27.332 47.1378 27.4436 47.1612 27.4847C47.1417 27.5277 47.0374 27.6483 46.7376 27.7807Z" fill="#FFFDFB"/>
	<path d="M44.1491 28.9232L46.7376 27.7807C47.0374 27.6483 47.1417 27.5277 47.1612 27.4847C47.1378 27.4436 47.0228 27.332 46.7119 27.2249L22.2407 18.8019C21.4879 18.5424 20.6527 18.9112 20.3787 19.6237L19.8819 20.9158L19.7162 21.3468C19.4424 22.0593 19.8319 22.8497 20.5845 23.109L21.0396 23.2658L39.5956 29.6506C40.4802 29.9554 41.948 29.8948 42.801 29.5183L43.5277 29.1975L43.5284 29.1972L44.1483 28.9236L44.1491 28.9232Z" fill="#FFFDFB"/>
	</symbol>
	<symbol id="why3">
	<rect width="60" height="60" rx="30" fill="#FAC663"/>
	<path d="M46.703 31.3539C46.5562 31.2055 43.7657 27.7186 37.6707 27.6073C37.0833 26.5686 34.8435 23.1929 31.2086 23.1929H31.0984L29.4829 20.0769C29.3727 19.8914 29.1892 19.7802 29.0056 19.7802H26.5088C26.2885 19.7802 26.105 19.8914 26.0315 20.0769L24.5629 23.1558H24.0855C23.9387 23.1558 20.4873 22.8962 16.8891 27.5702H14.0986C13.8416 27.5702 13.6213 27.7557 13.5478 28.0153C13.5111 28.2379 12.4096 33.5796 14.2455 35.8796C14.8329 36.5844 15.604 36.9553 16.5586 36.9553H17.3297C17.5867 38.8101 19.1655 40.2197 21.0748 40.2197C22.984 40.2197 24.5629 38.8101 24.8199 36.9553H35.5412C35.7982 38.8101 37.377 40.2197 39.2863 40.2197C41.1955 40.2197 42.7743 38.8101 43.0314 36.9553H46.2624C46.5562 36.9553 46.8132 36.6957 46.8132 36.3989V31.6878C46.8132 31.5765 46.7765 31.4281 46.703 31.3539ZM31.2086 24.2687C33.7788 24.2687 35.5412 26.4202 36.3489 27.6073H28.3814V24.2687H31.2086ZM26.876 20.893H28.6751L29.8501 23.1929H27.8306H25.7745L26.876 20.893ZM24.0488 24.2687H27.3166V27.6073H18.321C21.2951 24.1574 23.9754 24.2687 24.0488 24.2687ZM21.0748 39.1439C19.6061 39.1439 18.3944 37.9198 18.3944 36.436C18.3944 34.9522 19.6061 33.728 21.0748 33.728C22.5434 33.728 23.7551 34.9522 23.7551 36.436C23.7918 37.9198 22.5802 39.1439 21.0748 39.1439ZM39.2863 39.1439C37.8176 39.1439 36.6059 37.9198 36.6059 36.436C36.6059 34.9522 37.8176 33.728 39.2863 33.728C40.7549 33.728 41.9666 34.9522 41.9666 36.436C41.9666 37.9198 40.7916 39.1439 39.2863 39.1439ZM45.7117 35.8796H43.0314C42.7743 34.0248 41.1955 32.6152 39.2863 32.6152C37.377 32.6152 35.7982 34.0248 35.5412 35.8796H24.8199C24.5629 34.0248 22.984 32.6152 21.0748 32.6152C19.1655 32.6152 17.5867 34.0248 17.3297 35.8796H16.5586C15.9344 35.8796 15.4571 35.657 15.0899 35.2118C13.9517 33.7651 14.2455 30.3894 14.5392 28.7201H17.1461H37.3403C42.4439 28.7201 45.1242 31.2797 45.7117 31.9103V35.8796Z" fill="#FFFDFB"/>
	<path d="M26.876 20.893H28.6751L29.8501 23.1929H27.8306H25.7745L26.876 20.893Z" fill="#FFFDFB"/>
	<path d="M21.0748 39.1439C19.6061 39.1439 18.3944 37.9198 18.3944 36.436C18.3944 34.9522 19.6061 33.728 21.0748 33.728C22.5434 33.728 23.7551 34.9522 23.7551 36.436C23.7918 37.9198 22.5802 39.1439 21.0748 39.1439Z" fill="#FFFDFB"/>
	<path d="M39.2863 39.1439C37.8176 39.1439 36.6059 37.9198 36.6059 36.436C36.6059 34.9522 37.8176 33.728 39.2863 33.728C40.7549 33.728 41.9666 34.9522 41.9666 36.436C41.9666 37.9198 40.7916 39.1439 39.2863 39.1439Z" fill="#FFFDFB"/>
	</symbol>
	<symbol id="why4">
	<rect width="60" height="60" rx="30" fill="#FAC663"/>
	<path d="M31.0938 30.7365C33.2533 30.7365 35.0202 33.0063 35.0202 33.5738C35.0202 34.1412 33.2533 36.0328 31.0938 36.0328C28.9343 36.0328 27.3637 33.5738 27.3637 33.5738C27.3637 33.5738 28.9343 30.7364 31.0938 30.7365Z" fill="#FFFDFB"/>
	<path d="M25.0078 31.3039L27.3637 33.5738M27.3637 33.5738L25.0078 35.8436M27.3637 33.5738C27.3637 33.5738 28.9343 36.0328 31.0938 36.0328C33.2533 36.0328 35.0202 34.1412 35.0202 33.5738C35.0202 33.0063 33.2533 30.7365 31.0938 30.7365C28.9343 30.7364 27.3637 33.5738 27.3637 33.5738Z" stroke="#FFFDFB" stroke-width="2" stroke-linecap="round" stroke-linejoin="round"/>
	<path d="M18.8663 25.1296H19.057L19.3702 24.5551C19.5957 24.1414 20.0014 23.6921 20.3519 23.3579C20.5317 23.1865 20.7101 23.0328 20.8625 22.9172C20.9381 22.8598 21.0143 22.8065 21.0856 22.7642C21.1335 22.7359 21.2546 22.6646 21.3971 22.6484L21.3973 22.6484C21.6206 22.623 21.7897 22.4719 21.841 22.2873C22.0044 21.7 22.559 21.2977 23.0462 21.0692C23.5493 20.8333 24.1675 20.6935 24.662 20.7741L24.6622 20.7742C24.8854 20.8106 25.0988 20.7099 25.2054 20.5402L25.2055 20.54C25.484 20.0969 25.9641 19.8073 26.4429 19.6711C26.9228 19.5346 27.4856 19.5279 27.9644 19.7537L27.9644 19.7537C28.1644 19.8481 28.4033 19.8129 28.5623 19.6729L28.5623 19.6729C28.9564 19.3259 29.5 19.1796 29.999 19.1794C30.4981 19.1791 31.0424 19.3248 31.4378 19.6728L31.4379 19.6729C31.5968 19.8128 31.8354 19.8481 32.0358 19.7537L18.8663 25.1296ZM18.8663 25.1296L18.9178 24.9068C19.3232 23.1542 20.9292 22.621 21.1215 22.5595L21.3183 22.4966L21.4133 22.3132C22.2817 20.6363 24.0835 20.5481 24.2884 20.5412L24.4911 20.5344L24.6318 20.3883C25.6946 19.2842 27.1397 19.2696 27.9171 19.4619L28.1118 19.51L28.2857 19.4103C29.6344 18.6375 31.0268 19.0165 31.7142 19.4103L31.8881 19.51L32.0828 19.4618C32.8599 19.2696 34.3047 19.284 35.3678 20.3883L35.5085 20.5344L35.7113 20.5412C35.8666 20.5464 36.9181 20.5973 37.8006 21.3306M18.8663 25.1296L37.8006 21.3306M37.8006 21.3306C37.6544 21.2291 37.5015 21.1436 37.3546 21.0739C36.853 20.8359 36.2331 20.6921 35.7308 20.7741C35.5071 20.8105 35.2937 20.7099 35.187 20.5401L35.187 20.54C35.0273 20.2858 34.7848 20.0982 34.5392 19.9634C34.2891 19.8261 34.0047 19.7263 33.7204 19.6625C33.1756 19.5403 32.5172 19.5267 32.0359 19.7537L37.8006 21.3306ZM22.8045 22.5553L22.8044 22.5555C22.6455 23.1264 22.1608 23.5385 21.5833 23.6319C21.5563 23.6488 21.5173 23.6756 21.4669 23.7139C21.3509 23.8018 21.2013 23.9297 21.042 24.0816C20.9698 24.1505 20.898 24.2219 20.8285 24.2944H39.2763C39.2016 24.1912 39.1266 24.0921 39.0546 24.0004C38.9358 23.8494 38.8304 23.7257 38.7529 23.6428C38.7439 23.6331 38.7356 23.6244 38.728 23.6165C38.187 23.4992 37.7395 23.0995 37.5883 22.5553C37.5467 22.4055 37.3355 22.1716 36.926 21.9774C36.533 21.791 36.125 21.7229 35.8919 21.7611L35.8915 21.7611C35.2861 21.8597 34.6687 21.595 34.3403 21.0721C34.302 21.0112 34.2155 20.9265 34.058 20.84C33.9049 20.756 33.7119 20.6855 33.5014 20.6383C33.0567 20.5385 32.6557 20.567 32.4623 20.6582L32.4622 20.6582C31.906 20.9204 31.2393 20.8305 30.777 20.4234C30.6127 20.2789 30.3285 20.1792 29.9995 20.1794C29.6705 20.1795 29.3865 20.2796 29.2231 20.4234C28.7609 20.8304 28.0938 20.9204 27.5378 20.6582L22.8045 22.5553ZM22.8045 22.5553C22.8476 22.4001 23.0609 22.1668 23.4708 21.9746M22.8045 22.5553L23.4708 21.9746M23.4708 21.9746C23.8648 21.7898 24.2727 21.724 24.501 21.7611M23.4708 21.9746L24.501 21.7611M24.501 21.7611C25.1069 21.8601 25.7242 21.5944 26.0522 21.0721M24.501 21.7611L24.5816 21.2676L26.0522 21.0721M26.0522 21.0721C26.1641 20.8941 26.4028 20.7222 26.7165 20.6329M26.0522 21.0721L26.7165 20.6329M26.7165 20.6329C27.029 20.544 27.3321 20.5612 27.5378 20.6582L26.7165 20.6329ZM44.7743 25.7134L44.7743 25.7135L46.9677 40.4872C46.9778 40.5558 46.9719 40.6258 46.9504 40.6923L46.9406 40.6278L44.647 25.5544L44.6297 25.4403C44.7074 25.5145 44.759 25.6105 44.7743 25.7134ZM13.0593 40.6278L13.0494 40.6922C13.028 40.6259 13.0222 40.556 13.0324 40.4876L13.0324 40.4874L15.2255 25.7135L15.2255 25.7134C15.2408 25.6105 15.2924 25.5145 15.3702 25.4403L15.3528 25.5544L13.0593 40.6278ZM41.1333 25.1296H40.943L40.6293 24.5549C40.4058 24.1454 40.1 23.712 39.8406 23.3822C39.7103 23.2166 39.5862 23.07 39.484 22.9605C39.4338 22.9067 39.3822 22.8546 39.3335 22.812C39.3098 22.7913 39.278 22.765 39.2412 22.7406L39.2393 22.7394C39.2183 22.7253 39.1253 22.6632 38.9955 22.6484L38.9953 22.6484C38.772 22.623 38.603 22.4718 38.5518 22.2876L38.5518 22.2875C38.5431 22.2564 38.5333 22.2258 38.5225 22.1957C38.5443 22.2339 38.5656 22.273 38.5863 22.313L38.6813 22.4963L38.8779 22.5592C39.0675 22.6199 40.6752 23.1504 41.0818 24.9069L41.1333 25.1296ZM21.6169 23.613C21.6168 23.6132 21.6137 23.6149 21.6079 23.6174C21.6141 23.614 21.617 23.6128 21.6169 23.613Z" fill="#FFFDFB" stroke="#FFFDFB" stroke-width="0.999999"/>
	</symbol>
	<symbol id="why5">
	<rect width="60" height="60" rx="30" fill="#FAC663"/>
	<path d="M45.2157 20.3032C44.9972 20.1284 44.6911 20.0867 44.4166 20.1694C43.3955 20.4766 42.6272 21.0887 42.2578 21.4286C41.5756 21.2341 40.8382 21.2341 40.1559 21.4286C39.7821 21.0846 38.9996 20.4619 37.9601 20.1583C37.6502 20.068 37.3142 20.1577 37.1031 20.3928C36.924 20.5923 36.8787 20.8677 36.9656 21.1144C37.2248 21.8504 37.6446 23.0097 37.7917 23.4153C37.7264 23.6176 37.6866 23.8296 37.6731 24.0479C37.6602 24.2573 37.6641 24.4579 37.6825 24.6501L37.3923 25.221C37.2021 25.595 36.8217 25.8546 36.38 25.911C34.7736 26.1166 31.6468 26.5315 28.753 27.002C25.0074 27.611 23.5235 28.012 22.8871 28.2583C22.344 27.493 21.5704 26.8696 20.6703 26.4791C19.3032 25.886 17.016 24.5962 17.0577 22.6212C17.0955 20.8339 17.8243 19.7782 18.429 19.2071C18.6871 18.9634 18.8226 18.6278 18.8006 18.2865C18.7786 17.9446 18.6005 17.6257 18.3119 17.4115C17.7539 16.9973 16.9564 17.0696 16.4964 17.5758C14.9653 19.2605 14.5986 21.5936 14.5163 22.8344C14.4333 24.0852 14.8294 25.2424 15.6935 26.274C16.3133 27.0137 17.1592 27.6729 18.2077 28.2333C19.2243 28.7766 19.9591 29.6437 20.2767 30.675C20.3046 30.7657 20.3178 30.8597 20.3158 30.9539L20.3057 31.4306C20.3008 31.6637 20.2809 31.8964 20.246 32.1273L19.8976 34.4339C19.7609 35.3389 19.1348 36.1 18.2586 36.5179C17.6498 36.8083 17.3019 37.4264 17.3929 38.0558L18.0296 42.459C18.0625 42.6869 18.2723 42.8571 18.5202 42.8571H21.1393C21.2452 42.8571 21.3508 42.831 21.4371 42.7741C21.6131 42.658 21.6843 42.4578 21.6296 42.275L21.6014 42.1806C21.3957 41.4937 20.8325 40.9677 20.1167 40.7655L19.9936 39.8235C19.9591 39.5593 20.1208 39.3068 20.3873 39.2085L22.8895 38.2854C22.8891 38.31 22.8882 38.3343 22.8863 38.3579C22.8861 38.3607 22.8859 38.3636 22.8857 38.3665C22.8611 38.8019 22.8426 39.1941 22.8308 39.5322C22.8145 39.9964 23.0058 40.4459 23.3599 40.7743L25.4601 42.7225C25.5528 42.8087 25.6788 42.857 25.81 42.857H28.8465C29.1078 42.857 29.3281 42.6587 29.3421 42.4168C29.3912 41.5749 28.7522 40.8462 27.8527 40.7197L26.9843 40.5977L26.6256 40.0749C26.4493 39.8179 26.455 39.4894 26.6402 39.2378L29.0087 36.0206C29.7285 35.8144 32.7642 35.0003 34.5443 35.386C34.5677 35.6034 34.6324 35.8161 34.7367 36.0148L38.1895 42.5988C38.2724 42.7568 38.4452 42.857 38.6346 42.857H40.9832C41.0872 42.857 41.1911 42.832 41.2767 42.7771C41.4519 42.6645 41.5263 42.4684 41.4772 42.2866L41.3178 41.695C41.1639 41.124 40.7043 40.6861 40.1249 40.5148L40.7 35.8742C40.724 35.6805 40.786 35.4929 40.8834 35.3202C41.241 34.6863 41.9435 33.4678 42.6254 32.4391C43.1613 31.6307 43.5061 30.7012 43.6224 29.7511C43.7994 28.3054 44.1463 26.459 44.2323 26.0096C44.6135 25.5036 44.7889 24.8337 44.7406 24.0479C44.7271 23.8296 44.6873 23.6175 44.622 23.4153C44.7703 23.0063 45.1959 21.8307 45.4546 21.0958C45.5547 20.8116 45.4633 20.5013 45.2157 20.3032ZM20.0214 38.3551C19.3378 38.6073 18.9222 39.2566 19.0108 39.934L19.1763 41.2008C19.2038 41.4112 19.383 41.5768 19.6099 41.6016C19.8975 41.633 20.1552 41.7548 20.3471 41.9387H18.9533L18.3741 37.9336C18.3386 37.6884 18.4742 37.4476 18.7113 37.3345C19.8107 36.81 20.592 35.8503 20.842 34.7357C21.7328 35.7102 22.3679 36.631 22.6769 37.3754L20.0214 38.3551ZM41.7821 31.958C41.085 33.0096 40.3708 34.2483 40.0071 34.8931C39.8523 35.1674 39.7545 35.4623 39.7165 35.7693L39.4452 37.9592L38.8473 35.2141C38.7907 34.954 38.8554 34.6822 39.0249 34.4684L40.3886 32.748C41.1424 31.797 41.4854 30.6266 41.3544 29.4524C41.3263 29.2001 41.0829 29.0169 40.8111 29.0429C40.5392 29.069 40.3415 29.2947 40.3697 29.5469C40.4753 30.4936 40.1988 31.4372 39.591 32.204L38.2273 33.9244C37.8929 34.3462 37.7652 34.8826 37.877 35.3959L39.0944 40.9862C39.1411 41.2004 39.344 41.3545 39.5797 41.3545C39.9482 41.3545 40.2681 41.5861 40.3575 41.9178L40.3632 41.9389H38.9444L35.6268 35.613C35.5424 35.4519 35.5091 35.2727 35.5307 35.0947L36.0216 31.0537C36.0523 30.8017 35.8568 30.5744 35.5852 30.546C35.3132 30.5177 35.0686 30.6989 35.0379 30.9509L34.6113 34.4627C32.9957 34.1791 30.7753 34.6181 29.5142 34.9299C29.6164 34.314 29.4494 33.671 29.0171 33.1532L28.2939 32.2866C28.1265 32.0861 27.8157 32.0493 27.5994 32.2046C27.3833 32.3598 27.3437 32.6483 27.5111 32.8488L28.2343 33.7154C28.6388 34.2 28.6602 34.8656 28.2876 35.3718L25.8227 38.7199C25.4139 39.2753 25.4012 40.0006 25.7904 40.568L26.2699 41.267C26.3467 41.3789 26.472 41.4546 26.6134 41.4745L27.7043 41.6278C27.928 41.6592 28.1147 41.7761 28.2299 41.9388H26.015L24.0598 40.1251C23.9002 39.977 23.8129 39.7718 23.8202 39.5621C23.8318 39.2311 23.8499 38.8465 23.8741 38.4188C23.9838 36.9488 22.4352 35.0436 21.5017 34.0381C21.3372 33.8608 21.2493 33.6353 21.2542 33.4029L21.31 30.7609C21.311 30.7152 21.2285 30.4227 21.2285 30.4227C20.8399 29.1608 19.9426 28.1006 18.7018 27.4376C15.9088 25.945 15.4214 24.1412 15.5043 22.8908C15.6786 20.264 16.6749 18.8041 17.2533 18.1677C17.3646 18.0452 17.558 18.028 17.6934 18.1286C17.7895 18.1999 17.8092 18.2925 17.8123 18.3413C17.8154 18.3898 17.8079 18.4831 17.7227 18.5636C16.9921 19.2534 16.112 20.5141 16.0678 22.6032C16.0151 25.0976 18.6659 26.6234 20.2507 27.3109C21.1 27.6793 21.811 28.3014 22.2526 29.0625C22.2526 29.0625 22.2757 29.1022 22.2802 29.1091C22.3531 29.2218 22.475 29.3004 22.6142 29.3245C22.7556 29.3491 22.9019 29.3152 23.0144 29.2319C23.5296 28.8504 27.3746 27.9899 36.5154 26.8207C37.1697 26.737 37.7427 26.4018 38.1068 25.9046C38.1985 26.0417 38.3034 26.1687 38.4228 26.2832C38.9242 26.764 39.6428 27.0167 40.5051 27.0167C40.5372 27.0167 41.8031 27.0157 41.8031 27.0157C41.8059 27.0157 41.8087 27.0157 41.8116 27.0156C42.2771 27.0256 42.7022 26.963 43.0765 26.8324C42.9355 27.6242 42.7528 28.7156 42.6387 29.6474C42.5387 30.4646 42.2425 31.2636 41.7821 31.958ZM43.6354 23.2558C43.595 23.3576 43.5942 23.4708 43.6361 23.5748C43.7018 23.7382 43.7408 23.915 43.7522 24.1002C43.7938 24.7742 43.6302 25.3083 43.2793 25.6448C42.9562 25.9548 42.4553 26.1111 41.8313 26.0975C41.8265 26.0974 41.8218 26.0974 41.8171 26.0974C41.8124 26.0974 40.5906 26.0964 40.5675 26.0978C39.9505 26.1082 39.4551 25.9524 39.1344 25.6449C38.7835 25.3083 38.6199 24.7742 38.6614 24.1004C38.6728 23.9152 38.712 23.7383 38.7776 23.5749C38.819 23.4718 38.8187 23.3597 38.7793 23.2586C38.7789 23.2576 38.7786 23.2566 38.7782 23.2555C38.731 23.1256 38.3252 22.0078 38.0238 21.1602C38.9904 21.5517 39.6313 22.2497 39.6378 22.2568C39.7771 22.4119 40.0093 22.4644 40.21 22.3861C40.8436 22.1389 41.5702 22.1389 42.2037 22.3861C42.4034 22.4641 42.6356 22.4116 42.7751 22.2577C42.7823 22.2499 43.4233 21.5517 44.3899 21.1602C44.0882 22.0085 43.6819 23.1278 43.6354 23.2558Z" fill="#FFFDFB"/>
	<path d="M38.7782 23.2555L38.7793 23.2586C39.07 22.5 39.07 22.5 39.6378 22.2568C39.6313 22.2497 38.9904 21.5517 38.0238 21.1602C38.3252 22.0078 38.731 23.1256 38.7782 23.2555Z" fill="#FFFDFB"/>
	<path d="M44.3899 21.1602C43.4233 21.5517 42.7823 22.2499 42.7751 22.2577C43.5955 22.4972 43.6048 22.6745 43.6343 23.2363L43.6354 23.2558C43.6819 23.1278 44.0882 22.0085 44.3899 21.1602Z" fill="#FFFDFB"/>
	<path d="M17.2533 18.1677C16.6749 18.8041 15.6786 20.264 15.5043 22.8908L16.0678 22.6032C16.112 20.5141 16.9921 19.2534 17.7227 18.5636C17.8079 18.4831 17.8154 18.3898 17.8123 18.3413C17.8092 18.2925 17.7895 18.1999 17.6934 18.1286C17.558 18.028 17.3646 18.0452 17.2533 18.1677Z" fill="#FFFDFB"/>
	</symbol>
	<symbol id="why6">
	<rect width="60" height="60" rx="30" fill="#FAC663"/>
	<path d="M26.4226 24.9065C26.2568 25.2975 26.1739 25.7108 26.1761 26.1349C26.1807 26.987 26.5363 27.7953 27.1776 28.4108C27.8191 29.0264 28.674 29.3797 29.5849 29.4055C30.2959 29.4253 30.9969 29.2429 31.5915 28.8867C32.1564 29.2252 32.8172 29.4071 33.4918 29.4071C33.5271 29.4071 33.5626 29.4066 33.598 29.4056C34.4998 29.38 35.3486 29.0327 35.9882 28.4276C36.6277 27.8225 36.9893 27.0248 37.0062 26.1814C37.0169 25.6539 36.8977 25.1478 36.6522 24.6773C36.4274 24.2466 34.608 22.3809 33.9647 21.697C33.8035 21.5256 34.2363 22.1246 34.0532 22.2752C33.87 22.4259 33.2736 22.1867 33.4347 22.358C34.017 22.9771 35.6709 24.6811 35.8581 25.0396C36.0417 25.3915 36.1308 25.7704 36.1228 26.1659C36.0963 27.4796 34.9755 28.54 33.5712 28.5798C32.9553 28.5977 32.3485 28.4111 31.8644 28.0557C31.7042 27.938 31.4788 27.938 31.3186 28.0557C30.8345 28.4112 30.2278 28.5973 29.6117 28.5798C28.2115 28.5401 27.0667 27.4415 27.0596 26.1308C27.0579 25.8129 27.12 25.5034 27.2439 25.211C27.5305 24.5351 28.1502 23.7709 29.3161 22.6557C30.4114 21.608 32.1819 21.48 33.4347 22.358C33.6299 22.4948 33.9069 22.4578 34.0532 22.2752C34.1995 22.0927 34.1599 21.8338 33.9647 21.697C32.3585 20.5712 30.0884 20.7351 28.6843 22.0781C27.4147 23.2924 26.7595 24.1119 26.4226 24.9065Z" fill="#FFFDFB"/>
	<path d="M29.2598 20.7532C30.3952 20.7532 31.3189 19.6476 31.3189 18.2888C31.3189 16.9299 30.3952 15.8242 29.2598 15.8242C28.1244 15.8242 27.2006 16.9298 27.2006 18.2887C27.2006 19.6476 28.1244 20.7532 29.2598 20.7532ZM29.2598 16.6504C29.897 16.6504 30.4353 17.4007 30.4353 18.2887C30.4353 19.1768 29.897 19.927 29.2598 19.927C28.6226 19.927 28.0842 19.1768 28.0842 18.2887C28.0843 17.4007 28.6226 16.6504 29.2598 16.6504Z" fill="#FFFDFB"/>
	<path d="M29.2598 16.6504C29.897 16.6504 30.4353 17.4007 30.4353 18.2887C30.4353 19.1768 29.897 19.927 29.2598 19.927C28.6226 19.927 28.0842 19.1768 28.0842 18.2887C28.0843 17.4007 28.6226 16.6504 29.2598 16.6504Z" fill="#FFFDFB"/>
	<path d="M25.0409 23.7067C25.9572 23.7067 26.675 22.861 26.675 21.7814C26.675 20.7018 25.9572 19.8561 25.0409 19.8561C24.1246 19.8561 23.4069 20.7018 23.4069 21.7814C23.4069 22.861 24.1246 23.7067 25.0409 23.7067ZM25.0409 20.6823C25.4477 20.6823 25.7914 21.1856 25.7914 21.7814C25.7914 22.3772 25.4477 22.8806 25.0409 22.8806C24.6342 22.8806 24.2905 22.3772 24.2905 21.7814C24.2905 21.1856 24.6341 20.6823 25.0409 20.6823Z" fill="#FFFDFB"/>
	<path d="M25.0409 20.6823C25.4477 20.6823 25.7914 21.1856 25.7914 21.7814C25.7914 22.3772 25.4477 22.8806 25.0409 22.8806C24.6342 22.8806 24.2905 22.3772 24.2905 21.7814C24.2905 21.1856 24.6341 20.6823 25.0409 20.6823Z" fill="#FFFDFB"/>
	<path d="M37.9739 23.7067C38.8902 23.7067 39.6079 22.861 39.6079 21.7814C39.6079 20.7018 38.8902 19.8561 37.9739 19.8561C37.0576 19.8561 36.3399 20.7018 36.3399 21.7814C36.3399 22.861 37.0576 23.7067 37.9739 23.7067ZM37.9739 20.6823C38.3807 20.6823 38.7243 21.1856 38.7243 21.7814C38.7243 22.3772 38.3807 22.8806 37.9739 22.8806C37.5671 22.8806 37.2235 22.3772 37.2235 21.7814C37.2235 21.1856 37.5671 20.6823 37.9739 20.6823Z" fill="#FFFDFB"/>
	<path d="M37.9739 20.6823C38.3807 20.6823 38.7243 21.1856 38.7243 21.7814C38.7243 22.3772 38.3807 22.8806 37.9739 22.8806C37.5671 22.8806 37.2235 22.3772 37.2235 21.7814C37.2235 21.1856 37.5671 20.6823 37.9739 20.6823Z" fill="#FFFDFB"/>
	<path d="M34.43 20.7532C35.5654 20.7532 36.4892 19.6476 36.4892 18.2888C36.4892 16.9299 35.5654 15.8242 34.43 15.8242C33.2946 15.8242 32.3709 16.9298 32.3709 18.2887C32.3709 19.6476 33.2946 20.7532 34.43 20.7532ZM34.43 16.6504C35.0672 16.6504 35.6056 17.4007 35.6056 18.2887C35.6056 19.1768 35.0672 19.927 34.43 19.927C33.7928 19.927 33.2545 19.1768 33.2545 18.2887C33.2544 17.4007 33.7927 16.6504 34.43 16.6504Z" fill="#FFFDFB"/>
	<path d="M34.43 16.6504C35.0672 16.6504 35.6056 17.4007 35.6056 18.2887C35.6056 19.1768 35.0672 19.927 34.43 19.927C33.7928 19.927 33.2545 19.1768 33.2545 18.2887C33.2544 17.4007 33.7927 16.6504 34.43 16.6504Z" fill="#FFFDFB"/>
	<path d="M42.823 28.9704C42.3752 28.5517 41.7797 28.321 41.1463 28.321C40.5129 28.321 39.9174 28.5517 39.4694 28.9704L36.8693 31.4015C36.4352 30.9545 35.8089 30.6733 35.1138 30.6733H31.3894C31.1454 30.6733 31.8556 30.8583 31.8556 31.0864C31.8556 31.3145 31.1454 31.4995 31.3894 31.4995H35.1138C35.9342 31.4995 36.6016 32.1235 36.6016 32.8906C36.6016 33.6576 35.9342 34.2817 35.1138 34.2817H31.3894C31.1454 34.2817 30.9476 34.4666 30.9476 34.6948C30.9476 34.9229 31.1454 35.1078 31.3894 35.1078H35.1138C36.4214 35.1078 37.4852 34.1132 37.4852 32.8906C37.4852 32.6227 37.4341 32.3658 37.3406 32.1278C37.3457 32.1235 37.3509 32.1195 37.3558 32.1149L40.0942 29.5546C40.6743 29.0122 41.6182 29.0122 42.1983 29.5546C42.7784 30.097 42.7784 30.9795 42.1983 31.5219L36.7082 36.655H31.645C31.401 36.655 31.8556 36.8399 31.8556 37.068C31.8556 37.2962 31.6116 37.4811 31.8556 37.4811H36.8913C37.0084 37.4811 37.1208 37.4376 37.2036 37.3601L42.823 32.106C43.7476 31.2417 43.7476 29.835 42.823 28.9704Z" fill="#FFFDFB"/>
	<path d="M31.9687 36.6551H29.9574C29.8412 36.6551 29.7297 36.6978 29.647 36.7742L28.2578 38.0571L24.8632 34.8832C24.7982 34.6568 24.7653 34.4229 24.7653 34.1865C24.7653 32.7086 26.0513 31.5062 27.632 31.5062C27.6582 31.5062 27.6837 31.5037 27.7086 31.4996H31.5918C31.8358 31.4996 32.0336 31.3147 32.0336 31.0866C32.0336 30.8584 31.8358 30.6735 31.5918 30.6735H27.2825C27.211 30.6735 27.1438 30.6897 27.084 30.7179C25.313 30.9615 23.9417 32.3665 23.8848 34.0762L23.5277 33.7424C23.3551 33.5811 23.0754 33.5811 22.9029 33.7424L20.5622 35.9309C20.5471 35.945 20.5339 35.9601 20.5215 35.9755L16.6028 40.0745C16.5306 40.15 16.4906 40.2477 16.4904 40.349L16.4835 43.7431C16.483 43.9711 16.6802 44.1563 16.9241 44.1569L24.2046 44.1759H24.2058C24.323 44.1759 24.4353 44.1324 24.5182 44.0549L29.2254 39.6537C29.3083 39.5762 29.3548 39.4711 29.3548 39.3616C29.3548 39.252 29.3083 39.147 29.2254 39.0695L28.8247 38.6949L30.139 37.4812H31.9689C32.2129 37.4812 32.4107 37.2963 32.4107 37.0682C32.4105 36.84 32.2127 36.6551 31.9687 36.6551ZM24.0231 43.3492L17.3678 43.3318L17.3736 40.5077L20.8941 36.8253L25.9474 41.5501L24.0231 43.3492ZM26.5991 40.9407L21.5262 36.1977L23.2152 34.6185L28.2881 39.3615L26.5991 40.9407Z" fill="#FFFDFB"/>
	</symbol>
</svg>